<?xml version="1.0" standalone="no"?>
<!DOCTYPE svg PUBLIC "-//W3C//DTD SVG 20010904//EN"
 "http://www.w3.org/TR/2001/REC-SVG-20010904/DTD/svg10.dtd">
<svg version="1.0" xmlns="http://www.w3.org/2000/svg"
 width="260.000000pt" height="260.000000pt" viewBox="0 0 260.000000 260.000000"
 preserveAspectRatio="xMidYMid meet">
<metadata>
Created by potrace 1.14, written by Peter Selinger 2001-2017
</metadata>
<g transform="translate(0.000000,260.000000) scale(0.100000,-0.100000)"
fill="#000000" stroke="none">
<path d="M0 1300 l0 -1300 1300 0 1300 0 0 1300 0 1300 -1300 0 -1300 0 0
-1300z m1380 439 c45 -26 80 -83 80 -133 0 -46 -31 -108 -65 -130 -14 -9 -130
-50 -256 -91 -127 -40 -233 -75 -236 -79 -3 -3 61 -213 141 -466 81 -254 146
-465 144 -470 -5 -14 -229 -260 -237 -260 -8 0 -456 1398 -450 1404 17 15 763
244 798 245 27 1 57 -7 81 -20z"/>
</g>
</svg>
